<svg fill="none" height="82" viewBox="0 0 82 82" width="82" xmlns="http://www.w3.org/2000/svg"><g stroke="#184cef" stroke-miterlimit="10" stroke-width="3"><g stroke-linecap="round"><path d="m13.5 57.3552h-5.94c-1.67895 0-3.04-1.3611-3.04-3.04v-46.6336c0-1.67894 1.36105-3.04 3.04-3.04h46.6336c1.6789 0 3.04 1.36106 3.04 3.04v5.8184"/><path d="m23.5 67.296h-5.9992c-1.6789 0-3.04-1.3611-3.04-3.04v-46.6336c0-1.6789 1.3611-3.04 3.04-3.04h46.6336c1.6789 0 3.04 1.3611 3.04 3.04v5.8776"/><path d="m74.0752 24.5232h-46.6336c-1.6789 0-3.04 1.361-3.04 3.04v46.6336c0 1.6789 1.3611 3.04 3.04 3.04h46.6336c1.6789 0 3.04-1.3611 3.04-3.04v-46.6336c0-1.679-1.3611-3.04-3.04-3.04z"/></g><path d="m50.7584 65.8824c8.2856 0 15.0024-6.7168 15.0024-15.0024s-6.7168-15.0024-15.0024-15.0024-15.0024 6.7168-15.0024 15.0024 6.7168 15.0024 15.0024 15.0024z"/><path d="m50.7584 41.9728v17.8144" stroke-linecap="round"/><path d="m59.6656 50.88h-17.8296" stroke-linecap="round"/></g></svg>