<svg fill="none" height="83" viewBox="0 0 84 83" width="84" xmlns="http://www.w3.org/2000/svg" xmlns:xlink="http://www.w3.org/1999/xlink"><clipPath id="a"><path d="m0 0h84v83h-84z"/></clipPath><g clip-path="url(#a)" stroke="#184cef" stroke-miterlimit="10" stroke-width="3"><path d="m42.162 78.432c20.101 0 36.396-16.295 36.396-36.396 0-20.1009-16.295-36.39599-36.396-36.39599s-36.396 16.29509-36.396 36.39599c0 20.101 16.295 36.396 36.396 36.396z"/><path d="m42.162 78.432c20.101 0 36.396-16.295 36.396-36.396 0-20.1009-16.295-36.39599-36.396-36.39599s-36.396 16.29509-36.396 36.39599c0 20.101 16.295 36.396 36.396 36.396z"/><path d="m16.962 67.2c7.2624-5.5236 16.0787-8.6219 25.2-8.856 9.1213.2341 17.9376 3.3324 25.2 8.856"/><path d="m67.362 16.8c-7.2608 5.5289-16.077 8.6334-25.2 8.874-10.8 0-19.908-4.842-26.316-9.684"/><path d="m5.766 42.036h72.792"/><path d="m42.162 7.07996v72.77404"/><path d="m42.162 78.432c9.4441 0 17.1-16.3031 17.1-36.414s-7.6559-36.414-17.1-36.414-17.1 16.3031-17.1 36.414 7.6559 36.414 17.1 36.414z"/></g></svg>