<svg fill="none" height="100" viewBox="0 0 100 100" width="100" xmlns="http://www.w3.org/2000/svg" xmlns:xlink="http://www.w3.org/1999/xlink"><clipPath id="a"><path d="m0 0h100v100h-100z"/></clipPath><path d="m0 0h100v100h-100z" fill="#fff"/><g clip-path="url(#a)" fill="#e5422b"><path d="m47.3 58.1h-8.1v2.7h8.1z"/><path d="m36.4 58.1h-5.4v2.7h5.4z"/><path d="m89.6 0h-79.1c-5.8 0-10.5 4.7-10.5 10.5v78.9c0 5.9 4.7 10.6 10.5 10.6h79c5.7 0 10.5-4.7 10.5-10.5v-79c.1-5.8-4.6-10.5-10.4-10.5zm-15.2 62.9c0 .9-.3 1.7-.9 2.4-.6.6-1.5.9-2.4.9h-42.1c-.9 0-1.7-.3-2.4-.9-.6-.6-.9-1.5-.9-2.4v-12.9h48.8zm0-21h-48.8v-4.7c0-.9.3-1.7.9-2.4.7-.6 1.5-.9 2.4-.9h42c.9 0 1.7.3 2.4.9.6.6.9 1.5.9 2.4v4.7z"/></g></svg>