<svg fill="none" height="100" viewBox="0 0 100 100" width="100" xmlns="http://www.w3.org/2000/svg" xmlns:xlink="http://www.w3.org/1999/xlink"><path d="m89.6 0h-79.1c-5.8 0-10.5 4.7-10.5 10.5v78.9c0 5.9 4.7 10.6 10.5 10.6h79c5.7 0 10.5-4.7 10.5-10.5v-79c.1-5.8-4.6-10.5-10.4-10.5zm-39.8 60.9c3.3 0 6.8-1.3 10.2-4.3l4.7 5.4c-4.9 4-10.5 6.2-16.1 6.2-11.1 0-18.1-7.4-16.5-17.8s11.1-17.8 22.3-17.8c5.4 0 10.4 2.1 13.9 6l-6.6 5.4c-1.9-2.5-5-4.1-8.5-4.1-6.7 0-11.8 4.3-12.9 10.5-1 6.2 2.7 10.5 9.5 10.5z" fill="#e5422b"/></svg>