<?xml version="1.0" encoding="UTF-8"?>
<svg xmlns="http://www.w3.org/2000/svg" viewBox="0 0 256 256">
  <path d="m49.4844,141.3074v65.4297c0,4.7709,3.9529,8.7238,8.7238,8.7238h52.3438s0-52.3438,0-52.3438h34.8959v52.3438s52.3438,0,52.3438,0c4.7709,0,8.7238-3.9529,8.7238-8.7238v-65.4297c0-.2727-.1362-.5453-.1362-.818l-78.3791-64.6117-78.3791,64.6117c-.1362.2727-.1362.5453-.1362.818h-.0005Zm-30.3976-9.4054l8.4514,10.0871c.6815.818,1.7722,1.363,2.8625,1.4995h.4089c1.0904,0,2.0446-.2727,2.8625-.9542L128,63.8827l94.3278,78.6518c.9542.6815,2.0446,1.0904,3.2714.9542,1.0904-.1362,2.181-.6815,2.8625-1.4995l8.4514-10.0871c1.4995-1.7722,1.2268-4.6347-.5453-6.134l-98.0081-81.6508c-5.7251-4.7709-14.9943-4.7709-20.7193,0l-33.2602,27.8075v-26.5809c0-2.4537-1.9084-4.362-4.362-4.362h-26.1718c-2.4537,0-4.362,1.9084-4.362,4.362v55.6152s-29.8523,24.8087-29.8523,24.8087c-1.7722,1.4995-2.0446,4.362-.5453,6.134v.0002Z" fill="#718096"/>
</svg>
