<svg fill="none" height="21" viewBox="0 0 26 21" width="26" xmlns="http://www.w3.org/2000/svg"><path d="m25.5984 2.55407c-.9394.41625-1.9485.6975-3.0094.82463 1.0822-.648 1.9125-1.67625 2.304-2.900253-1.0125.600753-2.1341 1.037253-3.3278 1.271253-.9562-1.017003-2.3175-1.6537527-3.825-1.6537527-2.8935 0-5.2402 2.3467527-5.2402 5.2425027 0 .4095.0472.80775.135 1.1925-4.35714-.21938-8.21702-2.30625-10.80227-5.4765-.45.77625-.70875 1.67625-.70875 2.63475 0 1.818.92588 3.42337 2.331 4.36275-.8595-.02813-1.66725-.26325-2.37375-.65588v.0675c0 2.53913 1.80563 4.65753 4.20413 5.13903-.441.1192-.90338.1822-1.38038.1822-.3375 0-.66712-.0315-.98662-.0922.66712 2.0812 2.60212 3.5977 4.896 3.6382-1.79438 1.4063-4.0545 2.2444-6.50925 2.2444-.423003 0-.840377-.0248-1.2510023-.0731 2.3197523 1.4883 5.0737523 2.3546 8.0325023 2.3546 9.64129 0 14.91189-7.9853 14.91189-14.91075 0-.225-.0056-.45225-.0158-.67725 1.0238-.74025 1.9125-1.66163 2.6134-2.71125z" fill="#718096"/></svg>