<svg fill="none" height="25" viewBox="0 0 20 30" width="16.667" xmlns="http://www.w3.org/2000/svg"><path d="m5.75001 27.7499c0 .7792.6375 1.4167 1.41667 1.4167h5.66662c.7792 0 1.4167-.6375 1.4167-1.4167v-1.4166h-8.49999zm4.24999-26.916648c-5.46832 0-9.9166565 4.448338-9.9166565 9.916648 0 3.3717 1.6858365 6.3325 4.2499965 8.1317v3.2017c0 .7791.6375 1.4166 1.41667 1.4166h8.49999c.7792 0 1.4167-.6375 1.4167-1.4166v-3.2017c2.5641-1.7992 4.25-4.76 4.25-8.1317 0-5.46831-4.4484-9.916648-9.9167-9.916648zm4.0375 15.725048-1.2042.85v3.2583h-5.66662v-3.2583l-1.20417-.85c-1.9125-1.3317-3.04583-3.4992-3.04583-5.8084 0-3.90998 3.17333-7.08331 7.08332-7.08331 3.91 0 7.0833 3.17333 7.0833 7.08331 0 2.3092-1.1333 4.4767-3.0458 5.8084z" fill="#718096"/></svg>