<?xml version="1.0" encoding="UTF-8"?>
<svg xmlns="http://www.w3.org/2000/svg" viewBox="0 0 256 256">
  <path d="m229.0526,0H26.9474C11.9766,0,0,11.9766,0,26.9474v202.1053c0,14.9708,11.9766,26.9474,26.9474,26.9474h202.1053c14.9708,0,26.9474-11.9766,26.9474-26.9474V26.9474c0-14.9708-11.9766-26.9474-26.9474-26.9474Zm-58.6854,174.5591h-82.938c-17.0667,0-28.7439-11.3778-28.7439-25.1509,0-11.6772,8.3836-23.3544,20.3602-25.1509,0-20.0608,18.5637-28.7439,32.0374-21.8573,5.0901-10.1801,15.869-18.5637,30.5404-18.5637,20.9591,0,35.9298,18.8632,33.8339,37.4269,12.276,2.3953,21.8573,13.4737,21.8573,26.3485,0,14.9708-12.276,26.9474-26.9474,26.9474Z" fill="#e5422b"/>
</svg>
