<svg height="512" viewBox="0 0 512 512" width="512" xmlns="http://www.w3.org/2000/svg"><path d="m436.834959 381.029297-99.411686-159.783203v-141.558594h16.964451c5.598269 0 10.178671-4.5773437 10.178671-10.171875v-20.34375c0-5.5945313-4.580402-10.171875-10.178671-10.171875h-196.787639c-5.598269 0-10.178671 4.5773437-10.178671 10.171875v20.34375c0 5.5945313 4.580402 10.171875 10.178671 10.171875h16.964452v141.558594l-99.4116868 159.783203c-24.8529216 39.924609 3.8170016 91.970703 50.9781768 91.970703h259.725755c47.245998 0 75.831099-52.130859 50.978177-91.970703zm-51.157403 51.970703h-259.36749c-15.331651 0-24.310408-17.05601-16.348114-29.869231l99.274558-159.953125c3.981147-6.449038 6.098779-13.916346 6.098779-21.468509v-141.709135h81.317044v141.709135c0 7.637019 2.117631 15.019471 6.098778 21.468509l99.274559 159.953125c7.962294 12.813221-.931758 29.869231-16.348114 29.869231z" fill="#718096"/></svg>