<svg fill="none" height="28" viewBox="0 0 24 28" width="24" xmlns="http://www.w3.org/2000/svg"><g fill="#718096"><path d="m9.91997 11.8533c-.76 0-1.36.6666-1.36 1.48 0 .8133.61333 1.48 1.36 1.48.76003 0 1.36003-.6667 1.36003-1.48.0133-.8134-.6-1.48-1.36003-1.48zm4.86663 0c-.76 0-1.36.6666-1.36 1.48 0 .8133.6134 1.48 1.36 1.48.76 0 1.36-.6667 1.36-1.48 0-.8134-.6-1.48-1.36-1.48z"/><path d="m21.2667.666748h-17.86671c-1.50667 0-2.733334 1.226662-2.733334 2.746662v18.02669c0 1.52 1.226664 2.7466 2.733334 2.7466h15.12001l-.7067-2.4666 1.7067 1.5866 1.6133 1.4934 2.8667 2.5333v-23.91999c0-1.52-1.2267-2.746662-2.7333-2.746662zm-5.1467 17.413352s-.48-.5734-.88-1.08c1.7467-.4934 2.4133-1.5867 2.4133-1.5867-.5466.36-1.0666.6133-1.5333.7867-.6667.28-1.3067.4666-1.9333.5733-1.28.24-2.4534.1733-3.4534-.0133-.75998-.1467-1.41331-.36-1.95998-.5734-.30666-.12-.64-.2666-.97333-.4533-.04-.0267-.08-.04-.12-.0667-.02667-.0133-.04-.0266-.05333-.04-.24-.1333-.37334-.2266-.37334-.2266s.64 1.0666 2.33334 1.5733c-.4.5067-.89334 1.1067-.89334 1.1067-2.94666-.0934-4.06666-2.0267-4.06666-2.0267 0-4.2933 1.92-7.77332 1.92-7.77332 1.92-1.44 3.74664-1.4 3.74664-1.4l.1334.16c-2.40004.69334-3.50671 1.74667-3.50671 1.74667s.29333-.16.78667-.38667c1.42666-.62666 2.56004-.8 3.02664-.84.08-.01333.1467-.02667.2267-.02667.8133-.10666 1.7333-.13333 2.6933-.02666 1.2667.14667 2.6267.52 4.0134 1.28 0 0-1.0534-1-3.32-1.69334l.1866-.21333s1.8267-.04 3.7467 1.4c0 0 1.92 3.48002 1.92 7.77332 0 0-1.1333 1.9333-4.08 2.0267z"/></g></svg>