<svg fill="none" height="26" viewBox="0 0 26 26" width="26" xmlns="http://www.w3.org/2000/svg" xmlns:xlink="http://www.w3.org/1999/xlink"><clipPath id="a"><path d="m1 0h23.002v26h-23.002z"/></clipPath><g clip-path="url(#a)" fill="#718096"><path d="m14.3762 11.0268c.1071.081.2081.166.3072.253l1.6017-1.2564.0496-.06692c-.2477-.25105-.513-.48412-.7939-.69746-3.6747-2.77108-9.22755-1.61044-12.3989 2.59568-3.1713555 4.2062-2.771757 9.8635.90361 12.6379 3 2.2644 7.25169 1.905 10.44179-.5923l-.004-.0061-1.5241-1.1954c-2.3622 1.5181-5.29187 1.6278-7.41168.0281-2.82329-2.1305-3.13454-6.4772-.69612-9.7055 2.43842-3.22824 6.7021-4.12516 9.5248-1.9946z"/><path d="m10.6259 14.9726c-.1071-.0804-.2082-.166-.3073-.2524l-1.60171 1.2564-.04953.0669c.24755.251.51285.4839.79384.6968 3.6747 2.7738 9.2276 1.6131 12.4016-2.5931 3.174-4.20611 2.7691-9.8634-.9063-12.63984-3-2.264395-7.2517-1.904957-10.4418.5917l.0041.00669 1.5254 1.19545c2.3628-1.51874 5.2932-1.62785 7.4123-.02811 2.8233 2.13052 3.1346 6.47657.6961 9.70551-2.4384 3.2289-6.7028 4.1251-9.5267 1.994z"/></g></svg>