<svg height="512" viewBox="0 0 512 512" width="512" xmlns="http://www.w3.org/2000/svg"><path d="m147.591024 275.590437 19.021242-19.039321c4.606541-4.610918 4.530945-12.110816-.167669-16.627635l-78.2307486-75.200758h334.1559206c6.422795 0 11.630231-5.212385 11.630231-11.641285v-27.162997c0-6.4289-5.207436-11.641285-11.630231-11.641285h-334.1559206l78.2297796-75.2007588c4.699583-4.5168184 4.775179-12.0167161.167669-16.6276349l-19.021243-19.03932105c-4.541605-4.54592167-11.905479-4.54592167-16.448054 0l-127.73579609 127.85913975c-4.54160521 4.545922-4.54160521 11.916795 0 16.463687l127.73773509 127.85914c4.541605 4.544951 11.905479 4.544951 16.447085-.000971z" fill="#718096" transform="translate(39 117)"/></svg>