<svg height="28" viewBox="0 0 28 28" width="28" xmlns="http://www.w3.org/2000/svg"><path d="m14 0c7.7317 0 14 6.26814 14 13.9998 0 7.732-6.2683 14.0002-14 14.0002s-14-6.2682-14-14.0002c0-7.73166 6.2683-13.9998 14-13.9998zm1.3022 14.6204c-1.5469 0-2.8052 1.241-2.8052 2.7662 0 1.5295 1.2583 2.7733 2.8052 2.7733 1.5468 0 2.8051-1.2438 2.8051-2.7733 0-1.5252-1.2583-2.7662-2.8051-2.7662zm-4.6898-.0115h-.5484v5.5398h.5484zm12.4212 0h-3.6594v.5548h3.0056l-2.2702 4.985h.6035l2.3021-5.0671zm-7.7314.566c1.2448 0 2.2573.9922 2.2573 2.2116 0 1.2235-1.0125 2.2193-2.2573 2.2193-1.2449 0-2.2573-.9958-2.2573-2.2193 0-1.2194 1.0124-2.2116 2.2573-2.2116zm-8.42747.7482h-.54791v1.395h-1.37821v.5546h1.37821v1.3949h.54791v-1.3949h1.37827v-.5546h-1.37827zm8.42797.9141c-.3058 0-.5533.2507-.5533.5595 0 .3096.2475.5605.5533.5605.3052 0 .5532-.251.5532-.5605 0-.3088-.248-.5595-.5532-.5595zm-9.19357-8.99711h-.52197v5.54471h.54841v-4.56516l3.27414 4.56516h.66619zm6.77517 0h-.6575l2.2411 3.42271v2.1171h.5484v-2.1179l2.2087-3.42191h-.6559l-1.8283 2.84241zm8.1059 0c-1.0876 0-1.8186.5395-1.8186 1.34209 0 1.09622.9006 1.37232 1.6949 1.61602.8353.2558 1.3421.4597 1.3367 1.1299 0 .5453-.5387.8972-1.3724.8972-.5548 0-1.1383-.2398-1.4858-.6118l-.1426-.1521-.389.3938.1405.1443c.4603.4741 1.1968.7804 1.877.7804 1.1487 0 1.9202-.5835 1.9202-1.4506.0085-1.1325-.9466-1.4248-1.7149-1.6598-.8164-.2499-1.3167-.43598-1.3167-1.08732 0-.47818.4987-.78719 1.2707-.78719.4176 0 .8764.12236 1.1676.31254l.1718.11183.2853-.46329-.1665-.10886c-.3776-.24719-.9503-.40712-1.4582-.40712z" fill="#718096"/></svg>