<?xml version="1.0" encoding="UTF-8"?>
<svg xmlns="http://www.w3.org/2000/svg" viewBox="0 0 256 256">
    <path d="m193.9675,75.9204h30.5533v66.1989c0,7.4069.9258,12.4991,2.7776,15.2767s4.6293,4.1664,8.7957,4.1664c2.7776,0,5.5551-.4629,7.4069-.9259,1.8517-.4629,3.7035-1.3888,5.5551-2.7776l6.9439,12.962c-1.8517.9259-14.8137,9.2586-28.7016,6.9439-8.7957-1.3888-20.3689-6.481-20.3689-25.924v-60.6438h-13.425v-15.2767h.463Z" fill="#718096"/>
    <path d="m133.7866,75.9204h30.5533v66.1989c0,7.4069.9259,12.4991,2.7776,15.2767,1.8517,2.7776,4.6293,4.1664,8.7957,4.1664,2.7776,0,5.5552-.4629,7.4069-.9259,1.8517-.4629,3.7034-1.3888,5.5552-2.7776l6.9439,12.962c-1.8517.9259-14.8137,9.2586-28.7016,6.9439-8.7957-1.3888-20.3689-6.481-20.3689-25.924v-60.6438h-13.425v-15.2767h.463Z" fill="#718096"/>
    <path d="m116.1953,156.9331v-54.1628h-15.2767v7.4069c-5.5552-4.6293-12.962-7.4069-21.2948-7.4069-20.8318,0-37.9602,17.1284-37.9602,37.9602s17.1284,37.9602,37.9602,37.9602c11.1103,0,17.1284-4.6293,21.7577-10.6474,3.7034,13.425,20.8318,12.0362,24.5353,7.4069v-11.1103c-6.0181,2.7776-9.7215-1.3888-9.7215-7.4069Zm-37.0344,4.6293c-11.5732,0-20.3689-9.2586-20.3689-21.2948s9.2586-21.2948,20.3689-21.2948,20.3689,9.2586,20.3689,21.2948-9.2586,21.2948-20.3689,21.2948Z" fill="#718096"/>
    <path d="m12.962,180.0796c-7.4069,0-12.962-6.0181-12.962-12.962s6.0181-12.962,12.962-12.962c7.4069,0,12.962,6.0181,12.962,12.962s-6.0181,12.962-12.962,12.962Z" fill="#718096"/>
</svg>
