<svg height="26" viewBox="0 0 26 26" width="26" xmlns="http://www.w3.org/2000/svg"><path d="m20.5232163 5.11778029c2.1200453 0 3.6217441.32389581 5.4767837.88335221v18.4326161l-2.6206116.3827859v-7.0962627c-.9422423.9422424-2.2967157 1.9139298-4.2106455 1.9139298-3.0328426 0-5.5356738-2.2083805-5.5356738-6.9195923 0-5.12344282 2.826727-7.59682901 6.8901472-7.59682901zm-13.80973952-.11778029c2.03171008 0 3.53340882.61834655 4.47565122 1.29558324l-.382786 2.5617214c-1.207248-.97168743-2.50283124-1.5605889-4.12231029-1.5605889-2.41449604 0-4.03397508 1.76670442-4.03397508 5.00566256 0 3.4156285 1.76670441 5.0351075 4.1223103 5.0351075 1.41336353 0 2.79728199-.3827859 4.18120047-1.5605889l.3827859 2.4144961c-1.2955832.9716874-2.79728195 1.4428086-4.79954696 1.4428086-3.76896942 0-6.53680634-2.6206116-6.53680634-7.3023783 0-4.7701019 2.94450736-7.3318233 6.71347678-7.3318233zm13.83918462 2.35560589c-2.7383919 0-4.2695357 1.64892412-4.2695357 5.24122311 0 3.0917327 1.3839185 4.7112118 3.2684032 4.7112118 1.4722537 0 2.7678369-.9716875 3.8278595-2.2967158v-7.15515286c-.8833522-.32389581-1.5311438-.50056625-2.826727-.50056625z" fill="#718096"/></svg>