<svg height="448" viewBox="0 0 448 448" width="448" xmlns="http://www.w3.org/2000/svg"><path d="m393.4 0c9.8 0 18.89888 2.56379462 27.29888 7.69140625 8.4 4.66145085 14.93408 11.18749995 19.6 19.57812495 5.13408 7.9245538 7.70112 16.78125 7.70112 26.5703126v218.8554682c0 14.449775-5.13408 26.803013-15.4 37.059713-9.8 10.254462-21.93408 15.848212-36.4 16.78125-56.93408 2.796875-100.8 11.6529-131.6 26.568075-5.6 3.264512-11.66592 4.89565-18.2 4.89565h-44.8c-6.533408 0-12.6-1.631138-18.2-4.89565-30.8-14.915175-74.666592-23.7712-131.6-26.568075-14.466592-.933038-26.833408-6.526788-37.1-16.78125-9.8-10.2567-14.7-22.609938-14.7-37.059713v-218.8554682c0-14.9167413 5.3666592-27.5026788 16.1-37.7578126 10.733408-10.72136158 23.566592-16.0820312 38.5-16.0820312 7.466592 0 18.9.69921875 34.3 2.09765625 15.866592 1.3984375 37.8 5.36066962 65.8 11.88671875 28 6.5260491 51.1 15.149665 69.3 25.8710938 11.2-6.5261163 24.50112-12.3527901 39.89888-17.4804688 15.40224-5.1276116 29.86816-9.0898438 43.40224-11.8867188 13.53184-2.79687495 26.83296-4.8945312 39.89888-6.2929687 13.53408-1.86457587 23.8-3.02994866 30.8-3.49609375s12.13408-.69921875 15.4-.69921875zm-186.2 306.257812v-149.632812-74.1171875c0-9.7890625-4.433408-16.78125-13.3-20.9765625-21.933408-9.7890625-47.133408-16.78125-75.6-20.9765625-28.466592-4.6613837-49.7-6.9921875-63.7-6.9921875-5.6 0-10.5 2.0976562-14.7 6.2929688-4.2 3.7292412-6.3 8.390625-6.3 13.984375v218.8554682c0 3.729913.7 7.224888 2.1 10.487163 1.866592 2.796875 4.433408 5.12835 7.7 6.994425 3.266592 1.3962 6.533408 2.329238 9.8 2.796875 58.333408 2.796875 104.766592 10.719863 139.3 23.7712 1.866592.932955 3.5 1.165738 4.9.700338 1.866592-.4654 3.5-1.165738 4.9-2.096538 1.4-.933037 2.566592-2.098775 3.5-3.497213.933408-1.863837 1.4-3.729912 1.4-5.59375zm207.2-33.5625v-218.8554683c0-5.59375-2.10112-10.2551337-6.29888-13.9843749-4.20224-4.1953126-9.10112-6.2929688-14.70112-6.2929688-14 0-35.23296 2.3308038-63.69888 6.9921875-28.46816 4.1953125-53.66816 11.1875-75.6 20.9765625-8.86816 4.1953125-13.30112 11.1875-13.30112 20.9765625v74.1171875 149.632812c0 3.729913 1.63296 6.759488 4.90112 9.090963 3.26592 2.329237 6.53184 2.796875 9.79776 1.3962 34.53408-13.051338 80.96704-20.974325 139.30112-23.7712 5.6-.467638 10.26592-2.564175 14-6.294088 3.73408-3.729912 5.6-8.390625 5.6-13.984375z" fill="#718096" transform="translate(0 45)"/></svg>