<svg fill="none" height="28" viewBox="0 0 28 28" width="28" xmlns="http://www.w3.org/2000/svg"><path d="m28 13.9998c0 7.732-6.2683 14.0002-14 14.0002s-14-6.2682-14-14.0002c0-7.73166 6.2683-13.9998 14-13.9998s14 6.26814 14 13.9998z" fill="#718096"/><g fill="#fff"><path d="m15.0163 13.3799h-.5484v-2.1171l-2.2411-3.42271h.6575l1.8565 2.84241 1.8283-2.84241h.6559l-2.2087 3.42191z"/><path d="m20.8309 13.3799c-.6802 0-1.4167-.3063-1.877-.7804l-.1405-.1443.389-.3938.1426.1521c.3475.372.931.6118 1.4858.6118.8337 0 1.3724-.3519 1.3724-.8972.0054-.6702-.5014-.8741-1.3367-1.1299-.7943-.2437-1.6949-.5198-1.6949-1.61602 0-.80259.731-1.34209 1.8186-1.34209.5079 0 1.0806.15993 1.4582.40712l.1665.10886-.2853.46329-.1718-.11183c-.2912-.19018-.75-.31254-1.1676-.31254-.772 0-1.2707.30901-1.2707.78719 0 .65134.5003.83742 1.3167 1.08732.7683.235 1.7234.5273 1.7149 1.6598 0 .8671-.7715 1.4506-1.9202 1.4506z"/><path d="m6.87473 19.2676h-.54791v-1.3949h-1.37821v-.5546h1.37821v-1.395h.54791v1.395h1.37827v.5546h-1.37827z"/><path d="m10.6124 14.6089h-.5484v5.5398h.5484z"/><path d="m15.3022 20.1599c-1.5469 0-2.8052-1.2438-2.8052-2.7733 0-1.5252 1.2583-2.7662 2.8052-2.7662 1.5468 0 2.8051 1.241 2.8051 2.7662 0 1.5295-1.2583 2.7733-2.8051 2.7733zm0-4.985c-1.2449 0-2.2573.9922-2.2573 2.2116 0 1.2235 1.0124 2.2193 2.2573 2.2193 1.2448 0 2.2573-.9958 2.2573-2.2193 0-1.2194-1.0125-2.2116-2.2573-2.2116z"/><path d="m20.7131 20.1487h-.6035l2.2702-4.985h-3.0056v-.5548h3.6594l-.0184.4727z"/><path d="m15.8559 17.3967c0 .3095-.248.5605-.5532.5605-.3058 0-.5533-.2509-.5533-.5605 0-.3088.2475-.5595.5533-.5595.3052 0 .5532.2507.5532.5595z"/><path d="m9.40971 13.3848-3.27414-4.56516v4.56516h-.54841v-5.54471h.52197l3.96677 5.54471z"/></g></svg>