<svg fill="none" height="100" viewBox="0 0 100 100" width="100" xmlns="http://www.w3.org/2000/svg" xmlns:xlink="http://www.w3.org/1999/xlink"><clipPath id="a"><path d="m29 29h42v42h-42z"/></clipPath><path d="m0 0h100v100h-100z"/><rect fill="#4a7cf6" height="100" rx="12" width="100"/><g clip-path="url(#a)"><path d="m67.014 35.0295v35.9709h-26.9279c-3.953 0-7.1001-2.7472-7.1001-6.8338v-31.1472c0-2.2096 1.8081-4.019 4.0177-4.019h24.9199v30.8805h-21.8375c-2.746 0-4.6889 1.4725-4.6889 4.1526v.1348c0 2.6783 1.9429 4.4201 4.6889 4.4201h25.0522v-33.5589zm-5.0904 28.2005h-21.5708c-.6035 0-1.1374.3343-1.1374.8702 0 .6699.5364 1.0055 1.1374 1.0055h21.5704v-1.8757z" fill="#fff"/></g></svg>