<?xml version="1.0" encoding="UTF-8"?>
<svg xmlns="http://www.w3.org/2000/svg" viewBox="0 0 400 200">
  <g id="a" data-name="Background">
    <path d="m0,0h400v200H0V0Z" fill="#e5edf6"/>
  </g>
  <g id="b" data-name="Art">
    <circle cx="200" cy="100" r="50" fill="#fff"/>
    <path d="m180.023,86.5017v-.0017c0-1.3835,1.12-2.5,2.477-2.5h12.672l3.914,3.9142.586.5858h18.828c1.37,0,2.5,1.1296,2.5,2.5v22.5c0,1.37-1.13,2.5-2.5,2.5h-36c-1.37,0-2.5-1.129-2.5-2.499v-.001l.023-26.9983Z" fill="none" stroke="#637599" stroke-width="4"/>
    <circle cx="256.5" cy="133.5" r="28.5" fill="#28ab84"/>
    <path d="m267.5,135.5h-9v9h-3v-9h-9v-3h9v-9h3v9h9v3Z" fill="#fff"/>
  </g>
</svg>