<?xml version="1.0" encoding="UTF-8"?>
<svg xmlns="http://www.w3.org/2000/svg" viewBox="0 0 400 200">
  <g id="a" data-name="Background">
    <path d="m0,0h400v200H0V0Z" fill="#e5edf6"/>
  </g>
  <g id="b" data-name="Art">
    <path d="m93.6086,69h212.7828v62H93.6086v-62Z" fill="#fff"/>
    <g>
      <path d="m142.5,97.5h-3v3h3v-3Zm6,0h-3v3h3v-3Zm6,0h-3v3h3v-3Zm3-10.5h-1.5v-3h-3v3h-12v-3h-3v3h-1.5c-1.665,0-2.985,1.35-2.985,3l-.015,21c0,1.65,1.335,3,3,3h21c1.65,0,3-1.35,3-3v-21c0-1.65-1.35-3-3-3Zm0,24h-21v-16.5h21v16.5Z" fill="#637599"/>
      <path d="m251.985,85c-8.28,0-14.985,6.72-14.985,15s6.705,15,14.985,15c8.295,0,15.015-6.72,15.015-15s-6.72-15-15.015-15Zm.015,27c-6.63,0-12-5.37-12-12s5.37-12,12-12,12,5.37,12,12-5.37,12-12,12Zm.75-19.5h-2.25v9l7.875,4.725,1.125-1.845-6.75-4.005v-7.875Z" fill="#637599"/>
    </g>
    <line x1="218.1897" y1="56.5861" x2="181.8103" y2="144.4139" fill="none" stroke="#e5edf6" stroke-miterlimit="10" stroke-width="3"/>
  </g>
</svg>