<svg fill="none" height="200" viewBox="0 0 400 200" width="400" xmlns="http://www.w3.org/2000/svg"><path d="m0 0h400v200h-400z" fill="#e5edf6"/><circle cx="200" cy="100" fill="#fff" r="50"/><path d="m180.023 86.5017v-.0017c0-1.3835 1.12-2.5 2.477-2.5h12.672l3.914 3.9142.586.5858h.828 18c1.37 0 2.5 1.1296 2.5 2.5v22.5c0 1.37-1.13 2.5-2.5 2.5h-36c-1.37 0-2.5-1.129-2.5-2.499 0-.001 0-.001 0-.001z" stroke="#637599" stroke-width="4"/><circle cx="256.5" cy="133.5" fill="#28ab84" r="28.5"/><path d="m267.5 135.5h-9v9h-3v-9h-9v-3h9v-9h3v9h9z" fill="#fff"/></svg>