<svg fill="none" height="200" viewBox="0 0 400 200" width="400" xmlns="http://www.w3.org/2000/svg"><path d="m0 0h400v200h-400z" fill="#e5edf6"/><circle cx="200" cy="100" fill="#fff" r="50"/><path d="m200.789 80.444.005.0008 17.747 3.017 3.017 17.7472.001.005c.165.956-.132 1.988-.879 2.736 0 0 0 .001-.001.001l-20.018 19.982-.001.001c-1.228 1.228-3.217 1.228-4.426.018l-18.183-18.183c-1.21-1.209-1.21-3.198.018-4.426l.001-.001 19.982-20.0182c0-.0002 0-.0004 0-.0006.748-.7475 1.78-1.0441 2.737-.8792z" stroke="#637599" stroke-width="4"/><circle cx="256.5" cy="133.5" fill="#28ab84" r="28.5"/><path d="m267.5 135.5h-9v9h-3v-9h-9v-3h9v-9h3v9h9z" fill="#fff"/></svg>