<?xml version="1.0" encoding="UTF-8"?>
<svg xmlns="http://www.w3.org/2000/svg" viewBox="0 0 400 200">
  <g id="a" data-name="Background">
    <path d="m0,0h400v200H0V0Z" fill="#e5edf6"/>
  </g>
  <g id="b" data-name="Art">
    <rect x="60" y="45" width="280" height="110" rx="6" ry="6" fill="#fff"/>
    <path d="m304.6355,69.825l7.65,7.6333,7.65-7.6333,2.35,2.35-10,10-10-10,2.35-2.35Z" fill="#637599"/>
    <path d="m87.898,80.8414l-6.638-6.6379-2.26,2.2445,8.898,8.8982,19.102-19.1017-2.244-2.2445-16.858,16.8414Z" fill="#637599"/>
    <path d="m87.898,129.841l-6.638-6.637-2.26,2.244,8.898,8.898,19.102-19.102-2.244-2.244-16.858,16.841Z" fill="#637599"/>
    <rect x="125.4842" y="61" width="86.7658" height="30" rx="6" ry="6" fill="#c6d0e0"/>
    <rect x="125.4842" y="108" width="125.4911" height="30" rx="6" ry="6" fill="#c6d0e0"/>
  </g>
</svg>