<svg fill="none" height="200" viewBox="0 0 400 200" width="400" xmlns="http://www.w3.org/2000/svg"><path d="m0 0h400v200h-400z" fill="#e5edf6"/><path d="m114 69h172v62h-172z" fill="#fff"/><g fill="#637599"><path d="m155.5 97.5h-3v3h3zm6 0h-3v3h3zm6 0h-3v3h3zm3-10.5h-1.5v-3h-3v3h-12v-3h-3v3h-1.5c-1.665 0-2.985 1.35-2.985 3l-.015 21c0 1.65 1.335 3 3 3h21c1.65 0 3-1.35 3-3v-21c0-1.65-1.35-3-3-3zm0 24h-21v-16.5h21z"/><path d="m231.985 85c-8.28 0-14.985 6.72-14.985 15s6.705 15 14.985 15c8.295 0 15.015-6.72 15.015-15s-6.72-15-15.015-15zm.015 27c-6.63 0-12-5.37-12-12s5.37-12 12-12 12 5.37 12 12-5.37 12-12 12zm.75-19.5h-2.25v9l7.875 4.725 1.125-1.845-6.75-4.005z"/></g></svg>