<?xml version="1.0" encoding="UTF-8"?>
<svg xmlns="http://www.w3.org/2000/svg" viewBox="0 0 400 200">
  <g id="a" data-name="Background">
    <path d="m0,0h400v200H0V0Z" fill="#e5edf6"/>
  </g>
  <g id="b" data-name="Art">
    <path d="m142.089,69h115.8221v62h-115.8221v-62Z" fill="#fff"/>
    <path d="m199.985,85c-8.28,0-14.985,6.72-14.985,15s6.705,15,14.985,15c8.295,0,15.015-6.72,15.015-15s-6.72-15-15.015-15Zm.015,27c-6.63,0-12-5.37-12-12s5.37-12,12-12,12,5.37,12,12-5.37,12-12,12Zm.75-19.5h-2.25v9l7.875,4.725,1.125-1.845-6.75-4.005v-7.875Z" fill="#637599"/>
  </g>
</svg>