<?xml version="1.0" encoding="UTF-8"?>
<svg xmlns="http://www.w3.org/2000/svg" viewBox="0 0 400 200">
  <g id="a" data-name="Background">
    <path d="m0,0h400v200H0V0Z" fill="#e5edf6"/>
  </g>
  <g id="b" data-name="Art">
    <rect x="60" y="69" width="280" height="62" rx="6" ry="6" fill="#fff"/>
    <rect x="106" y="85" width="20" height="30" rx="6" ry="6" fill="#c6d0e0"/>
    <rect x="136" y="85" width="20" height="30" rx="6" ry="6" fill="#c6d0e0"/>
    <rect x="166" y="85" width="20" height="30" rx="6" ry="6" fill="#c6d0e0"/>
    <rect x="218" y="85" width="20" height="30" rx="6" ry="6" fill="#c6d0e0"/>
    <rect x="248" y="85" width="20" height="30" rx="6" ry="6" fill="#c6d0e0"/>
    <path d="m198.835,108.2734c0-1.6904,1.4727-3.1357,3.1904-3.1357,1.6904,0,3.1357,1.4453,3.1357,3.1357,0,1.7178-1.4453,3.1631-3.1357,3.1631-1.7178,0-3.1904-1.4453-3.1904-3.1631Z" fill="#c6d0e0"/>
    <path d="m85.1309,92.54c.1084,0,.1631-.082.1631-.1641v-1.7178c0-.4902.2725-.7637.7637-.7637h1.0635c.4902,0,.7637.2734.7637.7637v1.7998c0,.082.0537.1641.1631.1914,1.6357.1904,2.9453.627,4.0898,1.1445.4365.1914.5732.5459.4092.9814l-.709,2.0732c-.1631.5176-.5449.627-1.0088.3545-.9541-.5186-1.8271-.873-2.7539-1.0908-.1367-.0273-.1904.0537-.1904.1631v2.9727c0,.0811.0537.1357.1357.1904,3.2725,1.0088,5.7266,2.209,5.7266,5.3174,0,2.1816-1.6094,4.6631-5.6992,5.2354-.1094.0273-.1631.1094-.1631.1904v1.9912c0,.4902-.2734.7627-.7637.7627h-1.0635c-.4912,0-.7637-.2725-.7637-.7627v-1.9092c0-.082-.0547-.1631-.1631-.1904-1.9092-.1641-3.8721-.8457-5.0449-1.4453-.4092-.2188-.5186-.5732-.3818-1.0088l.6543-2.0186c.1641-.4902.5459-.627,1.0088-.3545,1.0088.5459,2.4814,1.1455,3.7637,1.3906.1084.0273.1631-.0537.1631-.1631v-3.4355c0-.082-.0547-.1641-.1631-.1914-3.5176-1.0361-5.7266-2.29-5.7266-5.5078,0-2.4268,1.6631-4.5264,5.7266-4.7988Zm-.0273,5.9717c.1084.0547.1904,0,.1904-.1094v-2.3174c0-.1094-.1094-.1641-.2998-.1367-1.0635.1094-1.5.4639-1.5,1.0908,0,.7363.4912,1.0908,1.6094,1.4727Zm2.9717,5.29c-.1094-.0547-.1904,0-.1904.1084v2.5088c0,.1094.1084.1641.2998.1367,1.0908-.2188,1.499-.627,1.499-1.3359,0-.6006-.4629-.9824-1.6084-1.418Z" fill="#c6d0e0"/>
  </g>
</svg>