<?xml version="1.0" encoding="UTF-8"?>
<svg xmlns="http://www.w3.org/2000/svg" xmlns:xlink="http://www.w3.org/1999/xlink" viewBox="0 0 400 200">
  <defs>
    <linearGradient id="c" x1="107.6231" y1="1033.7846" x2="143.6231" y2="970.7846" gradientTransform="translate(0 1102) scale(1 -1)" gradientUnits="userSpaceOnUse">
      <stop offset="0" stop-color="#637599"/>
      <stop offset="1" stop-color="#c6d0e0"/>
    </linearGradient>
  </defs>
  <g id="a" data-name="Background">
    <path d="m0,0h400v200H0V0Z" fill="#e5edf6"/>
  </g>
  <g id="b" data-name="Art">
    <circle cx="125.5" cy="99.5" r="31.5" fill="url(#c)"/>
    <path d="m172,75h126v50h-126v-50Z" fill="#fff"/>
    <path d="m188.447,88c-1.395,0-2.526,1.1311-2.526,2.5263v1.8947h-1.895c-1.395,0-2.526,1.131-2.526,2.5263s1.131,2.5263,2.526,2.5263h1.895v5.0524h-1.895c-1.395,0-2.526,1.131-2.526,2.527,0,1.395,1.131,2.526,2.526,2.526h1.895v1.895c0,1.395,1.131,2.526,2.526,2.526,1.396,0,2.527-1.131,2.527-2.526v-1.895h5.052v1.895c0,1.395,1.131,2.526,2.527,2.526,1.395,0,2.526-1.131,2.526-2.526v-1.895h1.895c1.395,0,2.526-1.131,2.526-2.526,0-1.396-1.131-2.527-2.526-2.527h-1.895v-5.0524h1.895c1.395,0,2.526-1.1311,2.526-2.5263s-1.131-2.5263-2.526-2.5263h-1.895v-1.8947c0-1.3952-1.131-2.5263-2.526-2.5263-1.396,0-2.527,1.1311-2.527,2.5263v1.8947h-5.052v-1.8947c0-1.3952-1.131-2.5263-2.527-2.5263Zm2.527,9.4736v5.0524h5.052v-5.0524h-5.052Z" fill="rgba(99, 117, 153, .24)" fill-rule="evenodd"/>
  </g>
</svg>