<svg fill="none" height="200" viewBox="0 0 400 200" width="400" xmlns="http://www.w3.org/2000/svg"><path d="m0 0h400v200h-400z" fill="#e5edf6"/><circle cx="200" cy="100" fill="#fff" r="50"/><circle cx="256.5" cy="133.5" fill="#28ab84" r="28.5"/><path d="m210.5 86v26.833c0 5.157-4.177 9.334-9.333 9.334-5.157 0-9.334-4.177-9.334-9.334v-29.1663c0-3.22 2.614-5.8334 5.834-5.8334s5.833 2.6134 5.833 5.8334v24.5003c0 1.283-1.05 2.333-2.333 2.333-1.284 0-2.334-1.05-2.334-2.333v-22.167h-3.5v22.167c0 3.22 2.614 5.833 5.834 5.833s5.833-2.613 5.833-5.833v-24.5003c0-5.1567-4.177-9.3334-9.333-9.3334-5.157 0-9.334 4.1767-9.334 9.3334v29.1663c0 7.094 5.74 12.834 12.834 12.834 7.093 0 12.833-5.74 12.833-12.834v-26.833z" fill="#637599"/><path d="m267.5 135.5h-9v9h-3v-9h-9v-3h9v-9h3v9h9z" fill="#fff"/></svg>