<?xml version="1.0" encoding="UTF-8"?>
<svg xmlns="http://www.w3.org/2000/svg" viewBox="0 0 400 200">
  <g id="a" data-name="Background">
    <path d="m0,0h400v200H0V0Z" fill="#e5edf6"/>
  </g>
  <g id="b" data-name="Art">
    <rect x="60" y="69" width="280" height="62" rx="6" ry="6" fill="#fff"/>
    <rect x="135.0002" y="85" width="152.6818" height="30" rx="6" ry="6" fill="#c6d0e0"/>
    <g>
      <path d="m81.0171,96.8789c0-1.6904,1.4727-3.1357,3.1904-3.1357,1.6904,0,3.1357,1.4453,3.1357,3.1357,0,1.7178-1.4453,3.1631-3.1357,3.1631-1.7178,0-3.1904-1.4453-3.1904-3.1631Zm3.1904,6.6807c1.6904,0,3.1357,1.4453,3.1357,3.1357,0,1.7178-1.4453,3.1631-3.1357,3.1631-1.7178,0-3.1904-1.4453-3.1904-3.1631,0-1.6904,1.4727-3.1357,3.1904-3.1357Z" fill="#c6d0e0"/>
      <path d="m95.3354,113.7305l5.999-25.1953c.1089-.4639.4087-.6543.8452-.6543l2.6992-.0273c.5181,0,.8184.2998.6816.8447l-5.9985,25.1953c-.1094.4639-.4092.6543-.8452.6543l-2.6997.0273c-.5181,0-.8179-.2998-.6816-.8447Z" fill="#c6d0e0"/>
      <path d="m111.6987,113.7305l5.999-25.1953c.1089-.4639.4087-.6543.8452-.6543l2.6992-.0273c.5181,0,.8184.2998.6816.8447l-5.9985,25.1953c-.1094.4639-.4092.6543-.8452.6543l-2.6997.0273c-.5181,0-.8179-.2998-.6816-.8447Z" fill="#c6d0e0"/>
    </g>
  </g>
</svg>