<svg fill="none" height="200" viewBox="0 0 400 200" width="400" xmlns="http://www.w3.org/2000/svg" xmlns:xlink="http://www.w3.org/1999/xlink"><linearGradient id="a" gradientUnits="userSpaceOnUse" x1="108" x2="144" y1="68" y2="131"><stop offset="0" stop-color="#637599"/><stop offset="1" stop-color="#637599" stop-opacity=".3"/></linearGradient><path d="m0 0h400v200h-400z" fill="#e5edf6"/><circle cx="125.5" cy="99.5" fill="url(#a)" r="31.5"/><path d="m172 75h126v50h-126z" fill="#fff"/><path clip-rule="evenodd" d="m188.447 88c-1.395 0-2.526 1.1311-2.526 2.5263v1.8947h-1.895c-1.395 0-2.526 1.131-2.526 2.5263 0 1.3952 1.131 2.5263 2.526 2.5263h1.895v5.0524h-1.895c-1.395 0-2.526 1.131-2.526 2.527 0 1.395 1.131 2.526 2.526 2.526h1.895v1.895c0 1.395 1.131 2.526 2.526 2.526 1.396 0 2.527-1.131 2.527-2.526v-1.895h5.052v1.895c0 1.395 1.131 2.526 2.527 2.526 1.395 0 2.526-1.131 2.526-2.526v-1.895h1.895c1.395 0 2.526-1.131 2.526-2.526 0-1.396-1.131-2.527-2.526-2.527h-1.895v-5.0524h1.895c1.395 0 2.526-1.1311 2.526-2.5263 0-1.3953-1.131-2.5263-2.526-2.5263h-1.895v-1.8947c0-1.3952-1.131-2.5263-2.526-2.5263-1.396 0-2.527 1.1311-2.527 2.5263v1.8947h-5.052v-1.8947c0-1.3952-1.131-2.5263-2.527-2.5263zm2.527 9.4736v5.0524h5.052v-5.0524z" fill="#637599" fill-opacity=".24" fill-rule="evenodd"/></svg>