<?xml version="1.0" encoding="UTF-8"?>
<svg xmlns="http://www.w3.org/2000/svg" viewBox="0 0 400 200">
  <g id="a" data-name="Background">
    <path d="m0,0h400v200H0V0Z" fill="#e5edf6"/>
  </g>
  <g id="b" data-name="Art">
    <circle cx="200" cy="100" r="50" fill="#fff"/>
    <circle cx="256.5" cy="133.5" r="28.5" fill="#28ab84"/>
    <path d="m209.5,87.5c0,5.2492-4.251,9.5-9.5,9.5s-9.5-4.2508-9.5-9.5,4.251-9.5,9.5-9.5,9.5,4.2508,9.5,9.5Zm-30.5,28.75c0-1.177.574-2.357,1.871-3.553,1.31-1.21,3.221-2.298,5.494-3.208,4.55-1.823,10.047-2.739,13.635-2.739s9.085.916,13.635,2.739c2.273.91,4.184,1.998,5.494,3.208,1.297,1.196,1.871,2.376,1.871,3.553v3.75h-42v-3.75Z" fill="none" stroke="#637599" stroke-width="4"/>
    <path d="m267.5,135.5h-9v9h-3v-9h-9v-3h9v-9h3v9h9v3Z" fill="#fff"/>
  </g>
</svg>