<?xml version="1.0" encoding="UTF-8"?>
<svg xmlns="http://www.w3.org/2000/svg" viewBox="0 0 400 200">
  <g id="a" data-name="Background">
    <path d="m0,0h400v200H0V0Z" fill="#e5edf6"/>
  </g>
  <g id="b" data-name="Art">
    <rect x="60" y="69" width="280" height="62" rx="6" ry="6" fill="#fff"/>
    <rect x="76" y="85" width="70" height="30" rx="6" ry="6" fill="#c6d0e0"/>
    <rect x="186" y="85" width="120" height="30" rx="6" ry="6" fill="#c6d0e0"/>
    <path d="m158.5,100.2559c0-7.6895,3.8721-10.9609,8.1528-10.9609,3.7905,0,6.9263,2.3721,6.9263,10.0342,0,5.1533-1.6909,7.1982-5.1538,7.1982-2.645,0-4.6626-1.5537-4.6626-5.835,0-3.9541,1.854-5.917,4.1992-5.917.627,0,1.1177.1631,1.4995.5176.1094.082.1636.0547.1367-.0811-.6274-2.4541-2.0181-2.8906-2.918-2.8906-2.5903,0-4.5811,2.3721-4.5811,7.9619,0,8.0713,3.5723,8.5898,5.3721,8.5898,1.1724,0,2.3994-.2461,3.6538-.9824.4634-.2451.8179-.1904,1.0361.2998l.627,1.3906c.1909.4365.082.791-.3545,1.0361-1.6089.8457-3.2173,1.3096-4.9624,1.3096-3.1904,0-8.9712-1.0908-8.9712-11.6709Zm10.0615,3.5996c.9272,0,1.3906-1.0635,1.3906-5.3447v-.0547c0-.0537-.0269-.1357-.0542-.1904-.4092-.6543-.8452-.8184-1.418-.8184-.7363,0-1.0908,1.0635-1.0908,3.2451,0,2.0176.4092,3.1631,1.1724,3.1631Z" fill="#c6d0e0"/>
  </g>
</svg>