<svg fill="none" height="80" viewBox="0 0 688 80" width="688" xmlns="http://www.w3.org/2000/svg" xmlns:xlink="http://www.w3.org/1999/xlink"><clipPath id="a"><path d="m31 32h13v14h-13z"/></clipPath><path d="m0 0h688v80h-688z" fill="#e4edf6"/><rect fill="#fbfcfe" height="33" rx="3.5" stroke="#d4dce6" width="642" x="22.5" y="23.5"/><path d="m49.4717 42.252c.0957 1.7841 1.5722 2.9121 3.7597 2.9121 2.3379 0 3.8077-1.1553 3.8077-3.001 0-1.4424-.8409-2.2559-2.8643-2.7344l-1.0869-.2666c-1.2715-.3144-1.791-.7246-1.791-1.4219 0-.875.8135-1.4765 2.0029-1.4765 1.1895 0 2.0029.5947 2.0918 1.5791h1.4902c-.0478-1.7022-1.4765-2.8711-3.5615-2.8711-2.1055 0-3.5889 1.1689-3.5889 2.8711 0 1.374.8409 2.2217 2.6524 2.6592l1.2783.3076c1.2783.3144 1.8184.7724 1.8184 1.5381 0 .8818-.8955 1.5244-2.1397 1.5244-1.2988 0-2.249-.6426-2.3584-1.6201zm12.3315-3.336c1.0254 0 1.7295.7246 1.7636 1.8252h-3.5957c.0752-1.0869.8135-1.8252 1.8321-1.8252zm1.7568 3.9717c-.1982.6221-.8408 1.0117-1.6611 1.0117-1.1621 0-1.9346-.8066-1.9346-2.0371v-.0889h5.0791v-.5058c0-2.1807-1.251-3.5479-3.2402-3.5479-2.0235 0-3.3291 1.4629-3.3291 3.7188 0 2.249 1.2988 3.6504 3.3906 3.6504 1.6269 0 2.8984-.8955 3.0967-2.2012zm5.7075 1.0459c-.8204 0-1.3467-.4238-1.3467-1.0254 0-.6221.5058-.9912 1.4629-1.0459l1.7226-.1094v.5537c0 .9297-.7929 1.627-1.8388 1.627zm-.4102 1.1689c.9707 0 1.8662-.5127 2.2695-1.2851h.0342v1.1826h1.4151v-4.9287c0-1.4287-1.1416-2.3516-2.9053-2.3516-1.6338 0-2.8369.9365-2.8779 2.2217h1.3808c.1162-.6152.6836-1.0117 1.4561-1.0117.9365 0 1.4765.4375 1.4765 1.251v.5468l-1.914.1094c-1.791.1094-2.7549.8477-2.7549 2.1055 0 1.2783.9912 2.1601 2.4199 2.1601zm5.7143-.1025h1.4766v-4.2656c0-1.0117.5879-1.6543 1.5381-1.6543.2871 0 .5468.041.663.0888v-1.3808c-.1162-.0274-.2939-.0547-.5058-.0547-.8477 0-1.5039.4854-1.7295 1.2988h-.0342v-1.2236h-1.4082zm11.0121-4.7168c-.123-1.4014-1.2714-2.5635-3.1171-2.5635-2.0371 0-3.377 1.4492-3.377 3.6846 0 2.2832 1.3399 3.6846 3.3906 3.6846 1.7432 0 2.9532-1.0118 3.1172-2.5225h-1.4219c-.164.834-.7656 1.292-1.6816 1.292-1.1416 0-1.9004-.9229-1.9004-2.4541 0-1.4971.752-2.4473 1.8867-2.4473.9707 0 1.5655.5674 1.6953 1.3262zm1.6743 4.7168h1.4766v-4.1084c0-1.1416.6699-1.8936 1.7636-1.8936 1.0391 0 1.5723.6426 1.5723 1.7022v4.2998h1.4834v-4.5938c0-1.6269-.9434-2.6796-2.5225-2.6796-1.1005 0-1.8457.4443-2.2763 1.3056h-.0342v-3.8965h-1.4629z" fill="#394b60"/><g clip-path="url(#a)"><path d="m40 38.5c0-1.9312-1.5688-3.5-3.5-3.5s-3.5 1.5688-3.5 3.5c0 1.9313 1.5688 3.5 3.5 3.5s3.5-1.5687 3.5-3.5zm4 6.5c0 .5469-.4531 1-1 1-.2656 0-.525-.1093-.7031-.2968l-2.6782-2.6719c-.9125.6312-2.0062.9687-3.1187.9687-3.0375 0-5.5-2.4625-5.5-5.5s2.4625-5.5 5.5-5.5 5.5 2.4625 5.5 5.5c0 1.1094-.3375 2.2032-.9688 3.1188l2.6813 2.6812c.1781.175.2875.4344.2875.7z" fill="#708299"/></g></svg>